<?xml version="1.0" encoding="utf-8"?>
<!-- Generator: Adobe Illustrator 21.1.0, SVG Export Plug-In . SVG Version: 6.00 Build 0)  -->
<svg version="1.1" id="Layer_1" xmlns="http://www.w3.org/2000/svg" xmlns:xlink="http://www.w3.org/1999/xlink" x="0px" y="0px"
	 viewBox="0 0 396 489.6" style="enable-background:new 0 0 396 489.6;" xml:space="preserve">
<style type="text/css">
	.st0{fill:#EB7024;}
	.st1{fill:#FEF8F7;}
	.st2{fill:#D82045;}
</style>
<g id="PPnaMk.tif">
	<g>
		<path class="st0" d="M392.3,260.7c-0.1,3.5-0.6,7.7-0.9,10.3c-5.1,42.9-21.7,80.7-48.3,114.3c-23.7,29.9-52.8,53.4-85.3,72.8
			c-17.9,10.7-36.6,19.8-56.1,27c-2.5,0.9-5,1-7.5-0.1c-45.3-18.3-86-44-120.8-78.9C41.7,374.4,19,337.2,8.6,292.9
			c-1.7-7-2.8-14.1-3.8-21.3c-0.4-2.7-0.9-5.3-1.1-8.7c0-70.4-0.6-140.3-0.6-210.7c2-2.1,4.2-3.8,6.7-5.1
			c12.8-7,26.2-12.7,39.8-17.6C88.3,15.7,128.1,7.8,169,5.2c1.7-0.1,1.7-0.1,5-0.4c18-1,33.2-1.3,52.3-0.2c0.5,0,1.1,0,1.6,0.1
			c0.6,0.1,1.2,0.1,1.7,0.2c19.8,1.3,39.5,3.7,59,7.6c32.6,6.6,64.1,16.4,93.5,32.3c4,2.1,8.1,4.1,10.7,8.1
			C392.9,122.9,392.3,190.6,392.3,260.7z M382.1,160.9c0-32.8,0-65.6,0-98.4c0-3.2-1.1-5.1-3.9-6.6c-17-9.3-34.9-16.6-53.2-22.6
			c-28.4-9.4-57.4-15.5-87.1-18.5c-28.3-2.9-56.7-2.7-84.9,0.4c-29.2,3.2-57.7,9.5-85.5,19.1C50.3,40.2,33.6,47.2,17.7,56
			c-2.6,1.4-3.8,3.3-3.8,6.4c0.1,61,0,122,0.1,183c0,19.9,3.1,39.3,9,58.3c11.6,37.2,32.4,68.5,59.6,95.6
			c32.4,32.3,70.1,56.6,111.5,75c2.9,1.3,5.3,1.2,8.2,0.1c14.8-6.1,29.2-13.2,43.2-21.2c35.4-20.5,66.9-45.6,92.1-78.3
			c16.9-22,29.3-46.3,36.8-73.2c5.3-19,7.7-38.5,7.7-58.2C382.1,215.9,382.1,188.4,382.1,160.9z"/>
		<path class="st1" d="M382.1,160.9c0,27.5,0,55,0,82.5c0,19.8-2.4,39.2-7.7,58.2c-7.5,26.9-19.9,51.2-36.8,73.2
			c-25.2,32.8-56.7,57.9-92.1,78.3c-13.9,8-28.3,15.1-43.2,21.2c-2.9,1.2-5.3,1.2-8.2-0.1c-41.5-18.5-79.2-42.7-111.5-75
			c-27.2-27.1-48-58.4-59.6-95.6c-5.9-19-9-38.4-9-58.3c-0.1-61,0-122-0.1-183c0-3.2,1.2-5,3.8-6.4c15.9-8.8,32.6-15.8,49.8-21.7
			c27.8-9.6,56.3-15.9,85.5-19.1c28.3-3.1,56.6-3.3,84.9-0.4c29.7,3,58.8,9.1,87.1,18.5c18.3,6.1,36.2,13.4,53.2,22.6
			c2.8,1.5,3.9,3.4,3.9,6.6C382.1,95.3,382.1,128.1,382.1,160.9z M350.4,339.4c0.8-1.5,1.3-2.4,1.8-3.3
			c14.4-28.3,21.6-58.5,21.7-90.3c0.2-59.5,0-119,0.1-178.5c0-3.4-1-5.1-4-6.6c-51.6-25.7-106.3-38.1-163.5-39.7
			c-34.1-0.9-67.9,2.8-101.1,10.7c-28,6.7-55,16.1-80.6,29.6c-2,1-2.8,2.2-2.8,4.6c0.1,59.4,0,118.8,0.1,178.2
			c0,32.4,7.9,62.8,22.9,91.4c0.5,0.9,0.8,2,1.9,2.7c0.5-1.1,0.9-2,1.2-2.9c5.5-14.9,11.2-29.8,16.5-44.7c0.8-2.3,1.9-3,4.3-2.9
			c7.7,0.1,15.4,0.1,23.1,0.1c0.9,0,1.9-0.2,2.9,0.4c-0.4,1-0.7,2-1,2.9c-9,24.4-18.1,48.8-27.2,73.1c-1,2.6-0.6,4.3,1.1,6.4
			c5.5,6.7,11.1,13.3,17.2,19.5c0.6,0.7,1.1,1.6,2.4,1.6c0.4-1,0.8-2,1.2-3.1c12.2-32.8,24.4-65.6,36.6-98.4
			c0.7-1.9,1.5-2.6,3.6-2.6c8,0.1,16,0.2,24,0c2.9-0.1,2.7,0.9,1.9,3c-5.4,14.2-10.6,28.5-16,42.7c-9.5,25.5-19,51-28.5,76.4
			c-0.7,1.9-0.7,3.1,1.1,4.5c6.4,5.1,12.9,10,19.5,14.8c1.8,1.3,2.8,1.6,3.6-1c1.5-4.8,3.5-9.4,5.2-14.1
			c15.3-41.2,30.6-82.5,45.9-123.7c0.8-2.1,1.8-2.6,3.9-2.6c5.4,0.1,10.9,0,16.3,0c5,0,5,0,6.8,4.8c16.9,45.6,33.8,91.1,50.7,136.7
			c0.8,2.3,1.5,2.4,3.4,1.1c6.6-4.8,13.2-9.6,19.5-14.7c1.7-1.3,2.1-2.4,1.3-4.5c-13.1-34.3-26.1-68.6-39.1-102.9
			c-2.5-6.7-5.1-13.4-7.7-20.5c9.4,0,18.4,0.1,27.4-0.1c2.2,0,3.3,0.6,4.1,2.8c12.4,33.5,24.9,66.9,37.3,100.4
			c0.8,2.2,1.2,2.8,3.1,0.8c6.3-6.7,12.2-13.6,18-20.8c1.3-1.6,1.3-3,0.6-4.8c-9.4-25.1-18.7-50.2-28.1-75.3c-0.9-2.4-0.7-3.1,2-3
			c8,0.1,16,0.1,24,0c1.7,0,2.6,0.5,3.2,2.2c2.8,8,5.9,16,8.8,23.9C343.9,322.2,347.1,330.5,350.4,339.4z M198.5,417.7
			c0.8,1.9,1.2,3,1.6,4.1c4.4,11.7,8.8,23.4,13,35.2c1,2.8,2.1,2.9,4.3,1.6c6.6-3.6,13.3-7.1,20-10.4c2.2-1.1,2.6-2.1,1.7-4.6
			c-9.9-26.5-19.8-53-29.6-79.5c-3.6-9.6-7.2-19.3-10.8-28.9c-1,0.5-1.1,1.4-1.3,2.1c-6.1,16.4-12.2,32.8-18.3,49.2
			c-7.1,19-14.1,38-21.2,57.1c-0.6,1.6-0.7,2.6,1.1,3.6c7.2,4,14.4,8,21.7,11.7c1.7,0.9,2.3,0.5,2.9-1.2c2.3-6.3,4.6-12.6,7-18.8
			C193.1,432,195.7,425.2,198.5,417.7z"/>
		<path class="st2" d="M350.4,339.4c-3.3-8.9-6.4-17.2-9.5-25.6c-3-8-6-15.9-8.8-23.9c-0.6-1.8-1.5-2.2-3.2-2.2c-8,0.1-16,0.1-24,0
			c-2.7-0.1-2.9,0.7-2,3c9.4,25.1,18.7,50.2,28.1,75.3c0.7,1.9,0.7,3.2-0.6,4.8c-5.8,7.1-11.7,14.1-18,20.8c-1.9,2-2.3,1.4-3.1-0.8
			c-12.4-33.5-24.9-66.9-37.3-100.4c-0.8-2.2-1.8-2.8-4.1-2.8c-9,0.1-18,0.1-27.4,0.1c2.7,7.1,5.2,13.8,7.7,20.5
			c13,34.3,26,68.6,39.1,102.9c0.8,2.1,0.4,3.2-1.3,4.5c-6.4,5.1-13,9.9-19.5,14.7c-1.9,1.4-2.6,1.2-3.4-1.1
			c-16.9-45.6-33.8-91.1-50.7-136.7c-1.8-4.8-1.8-4.8-6.8-4.8c-5.4,0-10.9,0.1-16.3,0c-2.1-0.1-3.1,0.5-3.9,2.6
			c-15.2,41.3-30.6,82.5-45.9,123.7c-1.7,4.7-3.7,9.3-5.2,14.1c-0.9,2.6-1.8,2.4-3.6,1c-6.6-4.8-13.1-9.7-19.5-14.8
			c-1.8-1.4-1.8-2.6-1.1-4.5c9.6-25.5,19-50.9,28.5-76.4c5.3-14.2,10.6-28.5,16-42.7c0.8-2.1,1-3.1-1.9-3c-8,0.2-16,0.1-24,0
			c-2,0-2.9,0.7-3.6,2.6c-12.1,32.8-24.4,65.6-36.6,98.4c-0.4,1-0.8,2-1.2,3.1c-1.3,0-1.8-1-2.4-1.6c-6-6.2-11.7-12.8-17.2-19.5
			c-1.7-2.1-2-3.8-1.1-6.4C76,339.8,85,315.4,94,291.1c0.3-0.9,0.7-1.9,1-2.9c-1-0.6-2-0.4-2.9-0.4c-7.7,0-15.4,0.1-23.1-0.1
			c-2.3,0-3.4,0.6-4.3,2.9c-5.4,15-11,29.8-16.5,44.7c-0.3,0.9-0.7,1.8-1.2,2.9c-1.1-0.7-1.4-1.8-1.9-2.7
			c-15-28.6-22.9-59-22.9-91.4c-0.1-59.4,0-118.8-0.1-178.2c0-2.4,0.8-3.6,2.8-4.6C50.4,48,77.4,38.6,105.4,31.9
			c33.2-8,67-11.7,101.1-10.7c57.2,1.6,111.9,14,163.5,39.7c3,1.5,4,3.2,4,6.6c-0.1,59.5,0.1,119-0.1,178.5
			c-0.1,31.8-7.4,61.9-21.7,90.3C351.7,337,351.2,337.9,350.4,339.4z M248.3,270.6C248.3,270.6,248.3,270.6,248.3,270.6
			c1.6,0,3.2,0,4.7,0c1.7,0,3.4,0,5,0c5.6,0,5.7,0,3.6-5.4c-16.2-43.4-32.5-86.7-48.6-130.1c-0.8-2.2-1.8-3.1-4.3-3
			c-6.9,0.2-13.8,0.1-20.8,0c-2.1,0-3.1,0.7-3.9,2.7c-7.3,19.5-14.6,38.9-22,58.4c-9.3,24.8-18.7,49.6-28.1,74.4
			c-1.1,2.8-0.3,3.2,2.3,3.1c7.7-0.1,15.4-0.1,23.1,0c2.1,0,3.1-0.6,3.8-2.7c2.9-8.6,6-17.2,8.9-25.8c0.6-1.8,1.4-2.5,3.4-2.4
			c14.9,0.1,29.9,0.1,44.8,0c2.1,0,2.9,0.8,3.5,2.7c2.9,8.5,5.9,17,8.8,25.5c0.7,2,1.6,2.9,3.8,2.8
			C240.4,270.5,244.4,270.6,248.3,270.6z M296.1,85.2c-2.9-8.6-5.5-16.5-8.2-24.4c-0.4-1.1-0.6-2.3-2.2-2.5c-4-0.5-8-1.1-12-1.8
			c-1.5-0.2-2.1,0.1-2.3,1.8c-1.6,12.6-3.3,25.2-4.8,37.8c-0.8,6.9-0.8,6.9,6.2,7.7c0.2,0,0.4,0,0.6,0.1c1.5,0.3,2-0.3,2.2-1.8
			c0.9-6.9,2.3-13.8,2.9-20.8c0.1-1.4,0.3-2.8,1.6-3.9c0.9,2.4,2,4.7,2.7,7.1c2,6.6,4,13.2,5.8,19.9c0.4,1.6,1.1,2.3,2.7,2.5
			c2.6,0.3,5.3,0.9,7.8,1.5c1.9,0.5,2.6,0,3-1.9c2.4-12.1,4.8-24.1,7.2-36.2c0.5-2.3,2-5.1,1-6.9c-1.1-1.9-4.4-1.1-6.6-1.9
			c-2.8-1-3.5,0.3-3.9,2.8C298.7,71.2,297.4,77.9,296.1,85.2z M124,75.3c0.1,4.5,0.7,9,2,13.3c3.1,9.9,8.7,13.9,19,13.5
			c11.4-0.5,18.6-6.4,20.5-17.1c1.2-6.6,0.8-13.2-1.1-19.6c-2.1-7.3-7-11.4-14.6-12.1c-2.2-0.2-4.4-0.1-6.5,0.1
			C130.6,54.6,123.7,62.4,124,75.3z M207.8,98.4c0.3-1.1-0.3-1.9-0.7-2.7c-2.5-5.6-5-11.1-7.6-16.6c-0.9-1.8-0.9-2.8,1.1-3.7
			c2.4-1.1,4.2-3,5.1-5.6c2.8-8.2,0.8-16.5-10.9-18.1c-7-1-14,0.1-21,0.2c-2.2,0-2.2,1.3-2.1,2.9c0.7,13.6,1.4,27.2,1.9,40.8
			c0.1,2.8,1,3.6,3.7,3.1c1.9-0.4,3.9-0.3,5.9-0.2c1.7,0.1,2.4-0.3,2.3-2.3c-0.3-4.7-0.3-9.4-0.3-14.1c0-0.9-0.8-2.4,0.9-2.7
			c1.5-0.2,1.5,1.3,1.9,2.2c2.1,4.9,4.1,9.7,6.2,14.6c0.4,1,0.7,2.1,2.2,2C200.2,98.4,204,98.4,207.8,98.4z M333.6,68
			c-7.7,0.1-13.2,3.3-16.9,9.5c-4.3,7.4-5.9,15.5-5,24c0.5,5,2.9,9.2,7.5,11.6c7,3.7,14.3,4.2,21.8,2c1.3-0.4,1.9-1.1,2.3-2.4
			c1.7-6.2,3.4-12.3,5.3-18.5c0.5-1.5,0.1-2.2-1.4-2.5c-3.1-0.8-6.1-1.7-9.1-2.6c-5.6-1.6-5.5-1.5-7.1,4.3c-0.5,1.9-0.3,2.7,1.7,3.1
			c0.9,0.2,2.6-0.1,2.2,1.7c-0.6,2.6-1.3,5.2-2,7.8c-0.3,1-1.2,0.9-2,1c-3.9,0.2-6.7-2.5-6.8-7c-0.2-5.4,1-10.6,3-15.5
			c3.1-7.6,9.7-9.3,15.6-3.6c2.6,2.5,4.5,2.4,7.3,1c1.9-1,2.3-1.7,1.3-3.6C347.5,70.9,340.8,68.5,333.6,68z M104,59.8
			c-6.1,0.3-13.1,2.3-20.3,3.7c-1.2,0.2-1.6,0.7-1.3,2.1c0.6,2.2,0.9,4.5,1.4,6.7c2.4,11.6,4.9,23.3,7.3,34.9
			c0.3,1.7,0.8,2.7,2.8,2.1c2.5-0.7,5-1.2,7.5-1.6c1.4-0.2,1.8-0.7,1.5-2.2c-0.8-3.5-1.3-7.1-2-10.6c-0.3-1.6,0-2.3,1.7-2.6
			c3-0.5,5.9-1.4,8.7-2.8c7.3-3.7,10.3-10.5,8.3-19.1C118,63.3,113.3,59.9,104,59.8z M59.3,108.8c-4.7-0.1-4.9,0.1-5.1,4.6
			c-0.1,1.2,0.2,1.8,1.4,2.2c9,2.3,17.4,1.3,24.3-5.4c6.9-6.7,4.4-18.2-4.5-21.7c-2.3-0.9-4.7-1.3-7.1-2c-2.3-0.6-4.6-0.9-6.8-2.1
			c-1.6-0.9-2.6-2.2-2.6-4.1c0.1-1.8,1.3-2.8,2.8-3.6c2.4-1.2,5-1.8,7.5-1.4c3.8,0.6,4.6-1.4,5.1-4.5c0.2-1.5,0.1-2.1-1.5-2.5
			C65.4,66.6,58.4,67.6,52,72c-5.4,3.7-7.1,9.9-4.8,15.9c1.8,4.6,5.4,7,9.9,8.2c2.9,0.8,5.8,1.2,8.7,2c2.5,0.7,4.9,1.7,5,4.8
			c0.1,3.3-2.4,4.3-4.9,5.1C63.7,108.7,61.5,108.9,59.3,108.8z M123.2,208.2c3,0,4.6-1.7,5.6-4.2c0.8-2.2,1.4-4.6,2.3-6.8
			c1.4-3.8,0.2-6.2-3.6-7.5c-7.2-2.4-14.4-4.9-21.6-7.3c-4.9-1.7-9.9-3.4-14.8-5.1c-2.5-0.8-4.8-0.3-5.7,2.2
			c-1.3,3.5-2.8,7-3.5,10.8c-0.4,2.1,0.4,3.6,2.2,4.7c1.5,0.9,3.1,1,4.7,1.6c9.5,3.9,19.4,6.3,28.9,10.1
			C119.3,207.4,121.3,208.4,123.2,208.2z M307.1,177c-4.1,1.3-8.7,2.5-13,4.1c-8.6,3.2-17.2,6.2-25.9,9.1c-2.6,0.8-3.7,3.3-2.8,5.9
			c0.9,2.6,1.7,5.3,2.5,7.9c1.3,4.2,3.1,5.2,7.3,3.8c4.9-1.6,9.9-3.4,14.8-5c7.1-2.4,14.2-4.7,21.2-7.2c2-0.7,4.3-2.1,3.8-4.6
			c-0.8-3.9-2.2-7.6-3.5-11.4C310.8,177.9,309.3,177.1,307.1,177z M220.4,79.8c-0.2,0-0.4,0-0.5,0c-0.2,3.9-0.4,7.8-0.6,11.7
			c-0.4,7.4-0.4,7.4,7,7.6c0.7,0,1.4,0,2.1,0.1c1.9,0.3,2.5-0.3,2.6-2.3c0.5-10.3,1.2-20.6,1.8-30.9c0.3-4.3,0.2-4.3,4.5-4.1
			c5.9,0.2,5.8,0.2,6.5-5.6c0.3-2.2-0.4-3-2.5-3.2c-9.5-0.6-18.9-1.3-28.4-1.4c-1.7,0-2.1,0.5-2.2,2.2c-0.3,6.7-0.3,6.7,6.3,6.9
			c0.3,0,0.6,0,0.9,0c1.8-0.1,2.6,0.4,2.5,2.6C220.2,68.8,220.4,74.3,220.4,79.8z M280.8,150.3c0-2-0.6-3.3-2.1-4.3
			c-2-1.2-3.9-2.7-5.7-4.2c-1.2-0.9-2.2-2.1-4-2.3c-3-0.3-4.2,2.1-5.4,3.8c-4.8,6.5-9.5,13-14.4,19.4c-2.8,3.6-2.6,6.7,0.1,8.9
			c2.3,1.8,4.7,3.6,7.1,5.3c3.1,2.1,5,1.6,7.2-1.4c4.6-6.3,9.3-12.4,13.8-18.8C278.6,154.6,281.2,153.1,280.8,150.3z M278.1,222.7
			c-2.9-0.1-4.3,1.4-5,3.7c-0.7,2.2-1.2,4.4-2,6.6c-1.6,4.3-0.9,7,3,8.4c8.8,3.3,17.8,6.4,26.7,9.4c2.7,0.9,4.4-0.9,5.2-3.2
			c1.2-3.3,2.3-6.7,2.9-10.3c0.4-2.9-0.4-4-2.8-4.8c-5.5-1.8-10.9-3.8-16.3-6C285.9,224.9,281.8,223.9,278.1,222.7z M137.3,178.1
			c0.5-0.1,1.2-0.1,1.6-0.4c2.9-2.1,5.9-4,8.6-6.4c1.6-1.4,2.9-3.2,1.6-5.8c-1.3-2.6-3.2-4.7-4.9-7c-3.8-5.3-7.9-10.3-11.6-15.7
			c-2.7-3.9-5.8-4.4-9.2-1.1c-1.3,1.2-2.5,2.5-4,3.5c-5.3,3.8-4.9,4.8-1.6,9.4c4.7,6.4,9.3,13,14.1,19.4
			C133.4,175.8,134.6,178,137.3,178.1z M118.8,222.7c-0.9-0.3-1.7,0.2-2.5,0.5c-2.8,1-5.5,2.1-8.3,3.1c-5.8,2.1-11.7,4.1-17.5,6.3
			c-2,0.8-3.7,2.6-3.3,4.7c0.6,3.1,2.4,5.9,3,8.9c0.6,3.3,2.5,4.1,5.3,4.6c1.4,0.2,2.3-0.9,3.6-1.2c3.4-0.7,6.8-1.9,9.9-3.1
			c4.6-1.9,9.3-3.6,13.9-5.6c2.7-1.2,3.8-2.4,3.1-5.3c-0.7-3.1-1.5-6.2-2.4-9.2C122.8,224.2,121.5,222.5,118.8,222.7z M245.9,95.3
			c-0.4,5.4-0.4,5.4,3.9,5.7c1.4,0.1,2.8,0.2,4.1,0.5c2.6,0.7,3.3-0.5,3.6-3c1.5-13.7,3-27.4,4.6-41.2c0.2-1.5-0.1-2.3-1.7-2.4
			c-3-0.3-6.1-0.6-9.1-0.9c-1.4-0.2-1.8,0.4-2,1.8C248.2,69.4,247,82.8,245.9,95.3z"/>
		<path class="st2" d="M198.5,417.7c-2.8,7.5-5.3,14.3-7.9,21.2c-2.3,6.3-4.7,12.5-7,18.8c-0.6,1.7-1.2,2.1-2.9,1.2
			c-7.3-3.7-14.5-7.7-21.7-11.7c-1.8-1-1.7-2-1.1-3.6c7.1-19,14.2-38,21.2-57.1c6.1-16.4,12.2-32.8,18.3-49.2
			c0.3-0.7,0.3-1.6,1.3-2.1c3.6,9.6,7.2,19.3,10.8,28.9c9.9,26.5,19.7,53,29.6,79.5c0.9,2.4,0.5,3.5-1.7,4.6
			c-6.7,3.3-13.4,6.8-20,10.4c-2.3,1.2-3.3,1.2-4.3-1.6c-4.2-11.8-8.6-23.5-13-35.2C199.7,420.7,199.2,419.6,198.5,417.7z"/>
		<path class="st1" d="M248.3,270.6c-4,0-7.9-0.1-11.9,0.1c-2.2,0.1-3.1-0.8-3.8-2.8c-2.9-8.5-5.9-17-8.8-25.5
			c-0.6-1.9-1.4-2.7-3.5-2.7c-14.9,0.1-29.9,0.1-44.8,0c-1.9,0-2.8,0.7-3.4,2.4c-2.9,8.6-6,17.2-8.9,25.8c-0.7,2.1-1.7,2.7-3.8,2.7
			c-7.7-0.1-15.4-0.1-23.1,0c-2.5,0-3.3-0.4-2.3-3.1c9.4-24.8,18.7-49.6,28.1-74.4c7.3-19.4,14.7-38.9,22-58.4
			c0.8-2,1.7-2.7,3.9-2.7c6.9,0.1,13.8,0.2,20.8,0c2.4-0.1,3.4,0.8,4.3,3c16.2,43.4,32.4,86.7,48.6,130.1c2,5.4,2,5.4-3.6,5.4
			c-1.7,0-3.4,0-5,0C251.5,270.6,249.9,270.6,248.3,270.6C248.3,270.6,248.3,270.6,248.3,270.6z M198.1,167.3
			c-1.3,4.1-2.3,7.4-3.4,10.7c-3.7,11-7.5,21.9-11.3,32.9c-0.5,1.5-1,2.6,1.4,2.6c8.9-0.1,17.8-0.1,26.7,0c1.5,0,2-0.4,1.4-1.9
			C207.9,197.1,202.7,182.8,198.1,167.3z"/>
		<path class="st1" d="M296.1,85.2c1.3-7.4,2.6-14,3.7-20.7c0.4-2.5,1.1-3.8,3.9-2.8c2.2,0.8,5.5,0,6.6,1.9c1,1.8-0.5,4.6-1,6.9
			c-2.4,12.1-4.9,24.1-7.2,36.2c-0.4,1.9-1.1,2.4-3,1.9c-2.6-0.7-5.2-1.2-7.8-1.5c-1.7-0.2-2.3-1-2.7-2.5
			c-1.9-6.6-3.8-13.3-5.8-19.9c-0.7-2.4-1.8-4.7-2.7-7.1c-1.3,1.1-1.5,2.5-1.6,3.9c-0.6,7-2,13.9-2.9,20.8c-0.2,1.6-0.7,2.2-2.2,1.8
			c-0.2,0-0.4,0-0.6-0.1c-6.9-0.8-7-0.8-6.2-7.7c1.6-12.6,3.2-25.2,4.8-37.8c0.2-1.6,0.9-2,2.3-1.8c4,0.6,8,1.3,12,1.8
			c1.5,0.2,1.8,1.3,2.2,2.5C290.5,68.8,293.2,76.7,296.1,85.2z"/>
		<path class="st1" d="M124,75.3c-0.2-12.9,6.7-20.7,19.4-21.9c2.2-0.2,4.4-0.2,6.5-0.1c7.5,0.7,12.4,4.7,14.6,12.1
			c1.9,6.4,2.2,13,1.1,19.6c-1.9,10.7-9.1,16.6-20.5,17.1c-10.2,0.4-15.9-3.6-19-13.5C124.6,84.3,124,79.9,124,75.3z M153.4,80.2
			c-0.2-4.2-0.4-9.2-2.6-13.8c-1.5-3.2-3.7-4.3-7.5-4c-3.2,0.3-5.3,2-6,5.3c-1.5,7.5-0.4,14.7,2.7,21.7c1.2,2.7,3.6,3.9,6.6,3.6
			c3.2-0.3,5.3-1.9,6.2-5.1C153.3,85.6,153.4,83.3,153.4,80.2z"/>
		<path class="st1" d="M207.8,98.4c-3.8,0-7.6,0-11.4,0c-1.4,0-1.7-1-2.2-2c-2-4.9-4.1-9.8-6.2-14.6c-0.4-0.9-0.5-2.5-1.9-2.2
			c-1.7,0.3-0.9,1.8-0.9,2.7c0,4.7,0,9.4,0.3,14.1c0.1,2-0.5,2.4-2.3,2.3c-2-0.1-4-0.1-5.9,0.2c-2.7,0.5-3.6-0.3-3.7-3.1
			c-0.5-13.6-1.2-27.2-1.9-40.8c-0.1-1.6-0.2-2.9,2.1-2.9c7-0.1,14-1.2,21-0.2c11.7,1.6,13.7,9.9,10.9,18.1
			c-0.9,2.6-2.7,4.5-5.1,5.6c-2,0.9-2,1.9-1.1,3.7c2.6,5.5,5.1,11,7.6,16.6C207.4,96.5,208,97.3,207.8,98.4z M187.2,59.6
			c-2.1-0.5-2.9,0.5-2.6,2.9c0.2,2.2,0.1,4.4,0.1,6.6c0,1,0.1,1.9,1.5,2c4.2,0.5,7.2-1.5,7.4-5.2C194,61.5,192.2,59.7,187.2,59.6z"
			/>
		<path class="st1" d="M333.6,68c7.2,0.5,13.9,2.9,17.8,10.3c1,1.9,0.6,2.6-1.3,3.6c-2.9,1.5-4.7,1.5-7.3-1
			c-5.9-5.6-12.5-3.9-15.6,3.6c-2,4.9-3.2,10.1-3,15.5c0.1,4.6,2.9,7.2,6.8,7c0.8,0,1.7,0,2-1c0.7-2.6,1.5-5.2,2-7.8
			c0.4-1.8-1.3-1.5-2.2-1.7c-2-0.4-2.2-1.2-1.7-3.1c1.6-5.8,1.5-5.9,7.1-4.3c3,0.8,6.1,1.8,9.1,2.6c1.5,0.4,1.8,1,1.4,2.5
			c-1.8,6.1-3.6,12.3-5.3,18.5c-0.4,1.3-1,2-2.3,2.4c-7.5,2.2-14.9,1.8-21.8-2c-4.5-2.4-7-6.6-7.5-11.6c-0.9-8.5,0.7-16.6,5-24
			C320.4,71.3,326,68.1,333.6,68z"/>
		<path class="st1" d="M104,59.8c9.3,0,14,3.5,15.6,10.6c2,8.6-1,15.5-8.3,19.1c-2.8,1.4-5.7,2.3-8.7,2.8c-1.7,0.3-2.1,1-1.7,2.6
			c0.7,3.5,1.3,7.1,2,10.6c0.3,1.4,0,1.9-1.5,2.2c-2.5,0.4-5.1,0.9-7.5,1.6c-2,0.6-2.5-0.5-2.8-2.1c-2.4-11.6-4.8-23.3-7.3-34.9
			c-0.5-2.3-0.8-4.5-1.4-6.7c-0.3-1.3,0.1-1.8,1.3-2.1C90.9,62.1,97.9,60.1,104,59.8z M107.4,77.1c-0.1-6.2-3.7-9.2-9.4-7.9
			c-1,0.2-1.9,0.4-1.6,1.9C97.3,75.1,98,79,98.7,83c0.2,0.9,0.6,1.3,1.6,1.3C104.2,84.3,107.5,81.1,107.4,77.1z"/>
		<path class="st1" d="M59.3,108.8c2.2,0.1,4.4-0.1,6.4-0.8c2.5-0.8,5.1-1.9,4.9-5.1c-0.1-3.1-2.5-4.1-5-4.8c-2.9-0.8-5.8-1.2-8.7-2
			c-4.5-1.2-8.1-3.6-9.9-8.2c-2.3-6-0.6-12.2,4.8-15.9c6.4-4.4,13.4-5.4,20.9-3.5c1.6,0.4,1.7,1,1.5,2.5c-0.5,3.1-1.3,5-5.1,4.5
			c-2.5-0.4-5.1,0.3-7.5,1.4c-1.5,0.7-2.7,1.8-2.8,3.6c-0.1,1.9,1,3.2,2.6,4.1c2.1,1.2,4.5,1.5,6.8,2.1c2.4,0.6,4.8,1.1,7.1,2
			c8.9,3.5,11.4,15,4.5,21.7c-6.9,6.7-15.3,7.7-24.3,5.4c-1.2-0.3-1.5-1-1.4-2.2C54.4,109,54.6,108.8,59.3,108.8z"/>
		<path class="st0" d="M123.2,208.2c-2,0.2-3.9-0.8-5.5-1.5c-9.5-3.9-19.4-6.3-28.9-10.1c-1.5-0.6-3.2-0.7-4.7-1.6
			c-1.8-1.1-2.6-2.5-2.2-4.7c0.7-3.8,2.2-7.2,3.5-10.8c0.9-2.5,3.2-3.1,5.7-2.2c4.9,1.7,9.9,3.4,14.8,5.1c7.2,2.5,14.4,5,21.6,7.3
			c3.9,1.3,5.1,3.7,3.6,7.5c-0.8,2.2-1.5,4.5-2.3,6.8C127.8,206.6,126.2,208.2,123.2,208.2z"/>
		<path class="st0" d="M307.1,177c2.2,0.1,3.7,0.9,4.3,2.6c1.3,3.7,2.7,7.5,3.5,11.4c0.5,2.5-1.8,3.9-3.8,4.6
			c-7,2.5-14.1,4.8-21.2,7.2c-4.9,1.7-9.9,3.4-14.8,5c-4.2,1.4-6,0.4-7.3-3.8c-0.8-2.6-1.6-5.3-2.5-7.9c-0.9-2.5,0.3-5,2.8-5.9
			c8.7-2.9,17.3-5.8,25.9-9.1C298.4,179.5,302.9,178.3,307.1,177z"/>
		<path class="st1" d="M220.4,79.8c0-5.5-0.1-11,0.1-16.5c0.1-2.1-0.7-2.7-2.5-2.6c-0.3,0-0.6,0-0.9,0c-6.7-0.1-6.6-0.1-6.3-6.9
			c0.1-1.7,0.4-2.2,2.2-2.2c9.5,0.2,18.9,0.8,28.4,1.4c2.2,0.1,2.8,0.9,2.5,3.2c-0.8,5.8-0.7,5.8-6.5,5.6c-4.3-0.2-4.3-0.2-4.5,4.1
			c-0.6,10.3-1.3,20.6-1.8,30.9c-0.1,2-0.8,2.7-2.6,2.3c-0.7-0.1-1.4-0.1-2.1-0.1c-7.4-0.3-7.4-0.3-7-7.6c0.2-3.9,0.4-7.8,0.6-11.7
			C220,79.8,220.2,79.8,220.4,79.8z"/>
		<path class="st0" d="M280.8,150.3c0.4,2.8-2.2,4.3-3.6,6.3c-4.5,6.3-9.2,12.5-13.8,18.8c-2.2,3-4.2,3.5-7.2,1.4
			c-2.4-1.7-4.8-3.4-7.1-5.3c-2.7-2.2-2.9-5.2-0.1-8.9c4.9-6.4,9.6-12.9,14.4-19.4c1.2-1.6,2.4-4,5.4-3.8c1.8,0.2,2.9,1.4,4,2.3
			c1.9,1.5,3.7,3,5.7,4.2C280.2,147,280.8,148.3,280.8,150.3z"/>
		<path class="st0" d="M278.1,222.7c3.7,1.2,7.8,2.3,11.7,3.8c5.4,2.2,10.8,4.2,16.3,6c2.5,0.8,3.3,1.9,2.8,4.8
			c-0.5,3.6-1.7,6.9-2.9,10.3c-0.8,2.3-2.5,4.1-5.2,3.2c-8.9-3-17.9-6.1-26.7-9.4c-3.9-1.5-4.7-4.1-3-8.4c0.8-2.2,1.3-4.4,2-6.6
			C273.8,224,275.2,222.6,278.1,222.7z"/>
		<path class="st0" d="M137.3,178.1c-2.7-0.2-3.9-2.3-5.3-4.1c-4.8-6.4-9.3-13-14.1-19.4c-3.4-4.6-3.7-5.6,1.6-9.4
			c1.5-1.1,2.7-2.3,4-3.5c3.4-3.3,6.5-2.8,9.2,1.1c3.7,5.3,7.8,10.4,11.6,15.7c1.6,2.3,3.6,4.4,4.9,7c1.3,2.6-0.1,4.4-1.6,5.8
			c-2.7,2.3-5.7,4.3-8.6,6.4C138.5,178,137.8,178,137.3,178.1z"/>
		<path class="st0" d="M118.8,222.7c2.7-0.3,4,1.5,4.7,3.6c0.9,3,1.7,6.1,2.4,9.2c0.7,2.9-0.4,4.1-3.1,5.3c-4.6,2-9.3,3.7-13.9,5.6
			c-3.1,1.3-6.5,2.4-9.9,3.1c-1.3,0.3-2.1,1.4-3.6,1.2c-2.7-0.4-4.6-1.3-5.3-4.6c-0.6-3.1-2.4-5.9-3-8.9c-0.4-2.1,1.3-3.9,3.3-4.7
			c5.8-2.2,11.7-4.2,17.5-6.3c2.8-1,5.5-2.1,8.3-3.1C117.1,223,117.9,222.5,118.8,222.7z"/>
		<path class="st1" d="M245.9,95.3c1.1-12.5,2.4-25.9,3.5-39.4c0.1-1.4,0.5-2,2-1.8c3,0.4,6.1,0.7,9.1,0.9c1.6,0.1,1.8,0.9,1.7,2.4
			c-1.6,13.7-3.2,27.4-4.6,41.2c-0.3,2.5-1,3.6-3.6,3c-1.3-0.3-2.7-0.4-4.1-0.5C245.5,100.7,245.5,100.7,245.9,95.3z"/>
		<path class="st2" d="M198.1,167.3c4.6,15.5,9.8,29.9,14.9,44.3c0.5,1.5,0,1.9-1.4,1.9c-8.9,0-17.8-0.1-26.7,0
			c-2.4,0-1.9-1.1-1.4-2.6c3.8-11,7.6-21.9,11.3-32.9C195.8,174.7,196.8,171.3,198.1,167.3z"/>
		<path class="st2" d="M153.4,80.2c0,3.1,0,5.4-0.7,7.7c-0.9,3.2-3,4.8-6.2,5.1c-2.9,0.3-5.4-0.9-6.6-3.6c-3-6.9-4.2-14.2-2.7-21.7
			c0.7-3.3,2.8-5,6-5.3c3.8-0.4,6,0.7,7.5,4C152.9,71,153.2,76,153.4,80.2z"/>
		<path class="st2" d="M187.2,59.6c5,0.1,6.8,1.9,6.5,6.3c-0.3,3.7-3.2,5.8-7.4,5.2c-1.4-0.2-1.5-1-1.5-2c0-2.2,0.1-4.4-0.1-6.6
			C184.3,60.1,185.1,59.1,187.2,59.6z"/>
		<path class="st2" d="M107.4,77.1c0,4-3.2,7.2-7.2,7.2c-1,0-1.4-0.4-1.6-1.3c-0.7-3.9-1.4-7.9-2.2-11.8c-0.3-1.5,0.6-1.7,1.6-1.9
			C103.8,67.9,107.4,70.9,107.4,77.1z"/>
	</g>
</g>
</svg>
